<svg xmlns="http://www.w3.org/2000/svg" viewBox="0 0 630 630">
    <g>
        <rect width="630" height="630" rx="61.52" ry="61.52" fill="#fff" />
        <path
            d="M315.5 576.95c-5.19 0-10.01-1.6-14-4.33L65.1 415.74c-2.6-1.64-4.94-3.8-6.84-6.44-.29-.4-.57-.8-.83-1.22a24.685 24.685 0 01-3.87-13.63V235.57c-.07-4.68 1.19-9.44 3.88-13.66.2-.32.4-.61.61-.92 1.94-2.76 4.35-5.02 7.04-6.72L301.5 57.37a24.61 24.61 0 0113.89-4.33h.23c5.15.02 9.93 1.61 13.89 4.33l236.4 156.89c2.71 1.71 5.12 3.96 7.05 6.74.21.29.41.6.61.91 2.7 4.22 3.96 8.98 3.88 13.66v158.88a24.768 24.768 0 01-4.7 14.85 24.369 24.369 0 01-6.83 6.43L329.51 572.62a24.71 24.71 0 01-14 4.33zm24.79-171.03v100.02l167.74-111.31-74.86-50.36-92.88 61.65zm-217.33-11.29L290.7 505.94V405.92l-92.88-61.65-74.86 50.36zm119.39-80.31l73.14 48.53 73.14-48.53-73.14-49.21-73.14 49.21zm235.55.27l49.96 33.61v-66.77l-49.96 33.15zm-374.78-33.15v66.77l49.96-33.61-49.96-33.15zm237.16-59.42l93.07 62.61 74.46-49.41-167.53-111.18v97.98zm-217.12 13.2l74.46 49.41 93.07-62.61v-97.98L123.16 235.22z" />
    </g>
</svg>