<svg xmlns="http://www.w3.org/2000/svg" viewBox="0 0 630.51 630">
    <g>
        <rect width="630" height="630" rx="259.3" ry="259.3" fill="#fff" />
        <path fill="#0a66c2"
            d="M568.48 0h-30.36l31.53.03c-.39 0-.78-.03-1.17-.03zm15.36.04h-14.19c.18-.01.35 0 .53 0h13.66zm46.67 140.86c-.02-1.23-.19-2.66-.51-4.29v382.05c.32-1.38.49-2.66.51-3.8V140.9zM537.34 0h.78-.78z" />
        <path fill="#0a66c2" d="M570.18.04c-.18 0-.35-.01-.53-.01L538.12 0h-.77c.25 0 .51.02.77.04h32.06z" />
        <path fill="#0a66c2"
            d="M570.18.04h-32.06c-.26-.02-.52-.05-.77-.04H61.52C27.54 0 0 27.55 0 61.52v506.95C0 602.46 27.54 630 61.52 630h506.95c33.98 0 61.52-27.54 61.52-61.52V61.52c0-33.41-26.63-60.58-59.82-61.48zM93.89 236.17h93.45V536.8H93.89V236.17zm-7.41-95.26c0-29.92 24.24-54.18 54.16-54.18 29.92 0 54.18 24.24 54.18 54.16 0 29.92-24.24 54.18-54.16 54.18-29.92 0-54.18-24.24-54.18-54.16zM395.4 310.87c-48.62 0-56.06 37.98-56.06 77.2v148.72h-93.35V236.17h89.62v41.08h1.25c18.27-31.24 52.25-49.9 88.42-48.56 94.61 0 112.06 62.23 112.06 143.19l-.04 164.92h-93.35V390.61c0-34.86-.62-79.74-48.55-79.74z" />
    </g>
</svg>