<svg xmlns="http://www.w3.org/2000/svg" viewBox="0 0 630 630">
    <defs>
        <radialGradient id="prefix__a" cx="24.79" cy="628.93" fx="24.79" fy="628.93" r="855.89"
            gradientUnits="userSpaceOnUse">
            <stop offset="0" stop-color="#6d4aff" />
            <stop offset="1" stop-color="#aa8eff" />
        </radialGradient>
    </defs>
    <rect width="630" height="630" rx="61.52" ry="61.52" fill="url(#prefix__a)" />
    <path fill="#fff"
        d="M273.79 343.77c22.31 22.26 58.17 22.29 80.45.06 53.22-53.07 106.31-106.27 159.44-159.44.76-.76 2.03-1.33 1.64-2.82H111.94c1.39 1.54 2.14 2.43 2.96 3.26 52.95 52.99 105.86 106.03 158.89 158.94z" />
    <path fill="#fff"
        d="M396.16 327.74c-2.21-2.22-3.42-1.73-5.33.22-8.45 8.62-17.01 17.12-25.55 25.64-28.46 28.4-72.69 28.77-101.54.76-8.75-8.5-17.33-17.17-25.86-25.89-1.96-2-3.11-2.36-5.3-.15-38.88 39.01-77.85 77.94-116.79 116.9-.68.68-1.81 1.21-1.39 2.63h401.32c-.65-.92-.83-1.28-1.1-1.55-39.5-39.51-79.02-78.99-118.46-118.55zm10.71-9.75c37.73 37.58 75.35 75.26 113.01 112.89.88.88 1.55 2.14 3.36 2.3V195.8c-1.43 1.35-2.3 2.13-3.12 2.96-37.75 37.73-75.46 75.5-113.3 113.14-2.53 2.52-2.36 3.69.05 6.1zm-184.53-.11c2.34-2.33 1.41-3.51-.4-5.32-37.85-37.79-75.67-75.63-113.5-113.44-.7-.7-1.2-1.75-2.67-1.79v236.65c.78-.53 1.15-.7 1.41-.96 38.38-38.39 76.72-76.8 115.16-115.13z" />
</svg>