<svg xmlns="http://www.w3.org/2000/svg" viewBox="0 0 630 630">
    <g>
        <rect width="630" height="630" rx="61.52" ry="61.52" fill="#2b2e3a" />
        <path fill="#9feaf9"
            d="M478.72 346.38c41.9-49.5 56.54-99.29 36.41-134.15-14.81-25.65-46.11-39.19-87.72-39.73-3.62 0-6.56 2.95-6.55 6.57 0 3.55 2.83 6.45 6.38 6.55 37.42.49 64.39 12.15 76.53 33.17 16.71 28.95 3.67 73.35-35.06 119.11-2.37 2.74-2.08 6.89.66 9.26s6.89 2.08 9.26-.66c.03-.04.06-.07.1-.11zM371.03 178.61c-37.89 8.12-78.22 23.99-116.95 46.35-95.83 55.33-158.35 136.92-149.67 196.08.48 3.59 3.79 6.11 7.38 5.63 3.59-.48 6.11-3.79 5.63-7.38 0-.05-.01-.11-.02-.16-7.71-52.53 51.55-129.86 143.24-182.8 37.57-21.69 76.62-37.06 113.13-44.89 3.56-.7 5.87-4.15 5.17-7.71s-4.15-5.87-7.71-5.17c-.07.01-.14.03-.21.04z" />
        <path fill="#9feaf9"
            d="M215.77 462.05c21.91 61.18 57.76 98.85 98.06 98.85 29.4 0 56.59-20.04 77.8-55.32 1.91-3.08.97-7.13-2.11-9.04-3.08-1.91-7.13-.97-9.04 2.11-.03.05-.07.11-.1.16-19.06 31.7-42.47 48.95-66.55 48.95-33.48 0-65.45-33.6-85.7-90.14a6.563 6.563 0 00-8.31-4.14 6.563 6.563 0 00-4.05 8.56zm200.13-11.97c11.34-36.24 17.44-78.06 17.44-121.63 0-108.72-38.05-202.44-92.25-226.51a6.56 6.56 0 00-8.59 3.52 6.57 6.57 0 003.26 8.48c48.34 21.47 84.45 110.41 84.45 214.51 0 42.27-5.9 82.76-16.83 117.71-1.13 3.44.74 7.15 4.19 8.28s7.15-.74 8.28-4.19l.06-.18zm123.6-6.43c0-17.35-14.06-31.41-31.41-31.41s-31.41 14.06-31.41 31.41 14.06 31.41 31.41 31.41S539.5 461 539.5 443.65zm-13.12 0c0 10.1-8.19 18.28-18.28 18.28s-18.28-8.19-18.28-18.28 8.19-18.28 18.28-18.28 18.28 8.19 18.28 18.28zm-407.25 31.41c17.35 0 31.41-14.06 31.41-31.41s-14.06-31.41-31.41-31.41-31.41 14.06-31.41 31.41 14.06 31.41 31.41 31.41zm0-13.12c-10.1 0-18.28-8.19-18.28-18.28s8.19-18.28 18.28-18.28 18.28 8.19 18.28 18.28-8.19 18.28-18.28 18.28z" />
        <path fill="#9feaf9"
            d="M313.83 133.98c17.35 0 31.41-14.06 31.41-31.41s-14.06-31.41-31.41-31.41-31.41 14.06-31.41 31.41 14.06 31.41 31.41 31.41zm0-13.12c-10.1 0-18.28-8.19-18.28-18.28s8.19-18.28 18.28-18.28 18.28 8.19 18.28 18.28-8.19 18.28-18.28 18.28zm4.8 229.81c-12.27 2.65-24.35-5.15-27.01-17.41-2.65-12.27 5.15-24.36 17.41-27.01 12.27-2.65 24.35 5.15 27.01 17.41 2.65 12.27-5.15 24.36-17.42 27.01z" />
    </g>
</svg>