<?xml version="1.0" encoding="UTF-8"?>
<svg id="Calque_2" data-name="Calque 2" xmlns="http://www.w3.org/2000/svg" viewBox="0 0 630 630">
  <defs>
    <style>
      .cls-1 {
        fill: #fff;
      }
    </style>
  </defs>
  <g id="Calque_2-2" data-name="Calque 2">
    <rect width="630" height="630" rx="61.52" ry="61.52"/>
    <path class="cls-1" d="m552.52,198.74l15.94-41.29-.69-2.56-157.69,41.55c16.81-24.33,11.03-43.83,11.03-43.83,0,0-50.36,32.16-88.45,31.32-38.09-.85-50.36-11-108.76,7.62-58.4,18.62-74.9,75.75-91.83,88.02-16.93,12.27-70.04,52.26-70.04,52.26l.12.71,47.88-15.25s-13.13,12.38-41.03,49.98c0,0-.49-.45-1.3-1.21l.04.26s22.43,34.28,44.43,27.93c2.2-.64,4.7-1.7,7.43-3.08,8.86,4.93,20.43,9.79,33.2,11.12,0,0-8.65-10.04-15.85-21.48,1.95-1.26,3.94-2.56,5.98-3.88l-.93.67,18.24,6.69-2.02-17.14c.06-.04.12-.08.18-.11l17.92,6.58-2.23-15.59c2.27-1.19,4.54-2.31,6.8-3.36l18.68-70.66,77.23-52.69-6.14,15.45c-15.66,38.51-45.07,47.61-45.07,47.61l-12.27,4.66c-9.13,10.79-12.97,13.45-16.11,49.66,7.36-1.85,14.39-2.29,20.76-.57,33.01,8.89,44.43,48.67,35.55,59.67-2.22,2.75-7.52,7.46-14.21,12.98h-13.39l-.17,10.85c-.46.36-.92.72-1.38,1.07h-13.63l-.17,10.59c-1.21.92-2.4,1.82-3.57,2.7-12.81.27-29.02-10.9-29.02-10.9,0,10.16,8.46,25.81,8.46,25.81,0,0,.55-.27,1.5-.73-.83.61-1.28.94-1.28.94,0,0,34.28,22.85,55.86,14.39,19.19-7.53,68.87-46.7,111.76-65.24l129.78-34.19,17.12-44.33-98.9,26.06v-39.82l116.01-30.57,17.12-44.33-133.13,35.08v-39.82l150.24-39.59Zm-235.54,84.4l30.8-8.11.41,1.54-9.61,24.89-31.92,8.41,10.32-26.73Zm10.63,53.27l-31.92,8.41,10.32-26.73,30.8-8.11.41,1.54-9.61,24.89Zm41.59-8.93l-31.92,8.41,10.32-26.73,30.8-8.11.41,1.54-9.61,24.89Z"/>
  </g>
</svg>