<svg xmlns="http://www.w3.org/2000/svg" viewBox="0 0 630 630">
    <rect width="630" height="630" rx="61.52" ry="61.52" fill="#222" />
    <circle fill="#61dafb" cx="315" cy="305.29" r="47.66" />
    <path fill="#61dafb"
        d="M315 414.57c-149.94 0-267.39-48-267.39-109.28S165.06 196.01 315 196.01s267.39 48 267.39 109.28S464.93 414.57 315 414.57zm0-195.32c-143.88 0-244.13 45.34-244.13 86.03S171.13 391.31 315 391.31s244.13-45.34 244.13-86.03S458.86 219.25 315 219.25z" />
    <path fill="#61dafb"
        d="M422.47 543.52c-55.79 0-138.15-72.84-202.11-183.6-34.84-60.35-58.66-122.46-67.06-174.89-9-56.15.94-95.68 28.01-111.3 53.15-30.54 153.36 47.09 228.33 176.92 74.98 129.84 92.12 255.57 39.05 286.2-7.79 4.52-16.62 6.68-26.23 6.68zM208.19 90.15c-5.81 0-10.94 1.21-15.26 3.71-17.86 10.31-23.93 42.2-16.68 87.49 7.96 49.69 30.78 108.99 64.25 166.95 71.93 124.59 161.35 188.62 196.57 168.43 35.24-20.37 24.36-129.88-47.55-254.45C326.37 152.95 249.81 90.16 208.19 90.16z" />
    <path fill="#61dafb"
        d="M207.53 543.52c-9.62 0-18.43-2.16-26.23-6.68-53.06-30.63-35.91-156.35 39.05-286.2C295.31 120.83 395.5 43.03 448.68 73.72c27.07 15.62 37.01 55.15 28.02 111.3-8.4 52.43-32.22 114.54-67.07 174.89-63.94 110.76-146.33 183.6-202.11 183.6zM421.81 90.15c-41.62 0-118.18 62.79-181.31 172.12-71.93 124.6-82.81 234.09-47.57 254.45 35.25 20.21 124.63-43.87 196.59-168.43 33.45-57.96 56.27-117.25 64.24-166.95 7.24-45.29 1.16-77.18-16.69-87.49-4.31-2.5-9.45-3.71-15.26-3.71z" />
</svg>