<svg xmlns="http://www.w3.org/2000/svg" viewBox="0 0 410 410">
    <rect width="410" height="410" rx="40.04" ry="40.04" fill="#300" />
    <path
        d="M197.2 248.89h-66.4l-13.57 41.95c-.36 1.61-1.78 2.68-3.39 2.5h-32.9c-1.95 0-2.48-1.06-1.95-3.19l57.03-164.17c.53-1.77 1.06-3.72 1.77-5.84.71-3.72 1.06-7.62 1.06-11.51-.18-.89.53-1.77 1.42-1.95h45.87c1.42 0 2.13.53 2.3 1.42l64.64 182.42c.53 1.95 0 2.83-1.77 2.83h-36.63c-1.25.18-2.5-.71-2.86-1.96l-14.64-42.48zm-56.12-35.56h45.48c-1.07-3.76-2.51-8.24-4.12-12.89-1.61-4.83-3.22-10.03-4.83-15.4-1.79-5.55-3.4-10.92-5.19-16.47-1.79-5.55-3.4-10.74-4.83-15.94-1.43-5.01-2.69-9.67-3.94-13.97h-.36c-1.61 7.7-3.58 15.4-6.09 23.1-2.69 8.59-5.37 17.55-8.24 26.5-2.51 9.13-5.19 17.55-7.88 25.07zm151.98-76.62c-5.87.18-11.56-2.13-15.82-6.22-4.09-4.44-6.22-10.31-6.04-16.36-.18-6.04 2.13-11.73 6.4-15.82 4.27-4.09 9.96-6.22 15.82-6.22 6.93 0 12.27 2.13 16.18 6.22 3.91 4.27 6.04 9.96 5.87 15.82.18 6.04-1.96 11.91-6.22 16.36-4.09 4.27-10.13 6.58-16.18 6.22zm-16.07 156.62a2.67 2.67 0 01-2.67-2.67V153.59c0-1.78.7-2.49 2.27-2.49h34.53c1.28 0 2.31 1.03 2.31 2.31v137.07c0 1.96-.7 2.84-2.27 2.84h-34.17z"
        fill="#ff9a00" />
</svg>