<svg xmlns="http://www.w3.org/2000/svg" viewBox="0 0 630 630">
  <g>
    <rect width="630" height="630" rx="61.52" ry="61.52" fill="#001e2b" />
    <path
      d="M356.57 128.92c-20.17-23.85-37.53-48.07-41.08-53.1-.37-.37-.93-.37-1.31 0-3.55 5.03-20.91 29.25-41.08 53.1-173.09 220.03 27.26 368.53 27.26 368.53l1.68 1.12c1.49 22.92 5.23 55.89 5.23 55.89h14.94s3.73-32.79 5.23-55.89l1.68-1.3c.19 0 200.54-148.31 27.45-368.34zm-41.83 365.17s-8.96-7.64-11.39-11.55v-.37l10.83-239.6c0-.75 1.12-.75 1.12 0l10.83 239.6v.37c-2.43 3.91-11.39 11.55-11.39 11.55z"
      fill="#00ed64" />
  </g>
</svg>