<svg xmlns="http://www.w3.org/2000/svg" viewBox="0 0 410 410">
    <rect width="410" height="410" rx="40.04" ry="40.04" fill="#001e36" />
    <path fill="#31a8ff"
        d="M89.5 286.73V106.48c0-.97.79-1.75 1.75-1.75 3.02 0 5.87 0 9.96-.17 4.26-.17 8.69-.17 13.48-.35 4.79-.17 9.94-.17 15.44-.35 5.5-.17 10.82-.17 16.15-.17 14.55 0 26.61 1.75 36.55 5.42 8.87 2.98 17.03 7.88 23.77 14.35a55.572 55.572 0 0112.95 19.95c2.66 7.35 4.08 14.88 4.08 22.75 0 15.05-3.55 27.47-10.65 37.27-7.1 9.8-17.03 17.15-28.56 21.35-12.06 4.38-25.37 5.95-39.92 5.95-4.26 0-7.1 0-8.87-.18s-4.26-.18-7.63-.18v56.17c.18 1.22-.71 2.28-1.95 2.45H91.63c-1.42 0-2.13-.7-2.13-2.27zM128 138.85v58.8c2.45.17 4.72.35 6.83.35h9.27c6.83 0 13.65-1.05 20.12-3.15 5.6-1.58 10.5-4.9 14.35-9.28 3.67-4.38 5.42-10.33 5.42-18.03.17-5.42-1.22-10.85-4.03-15.58-2.97-4.55-7.17-8.05-12.25-9.97-6.47-2.62-13.47-3.67-20.65-3.5-4.55 0-8.58 0-11.9.17-3.5-.17-5.95 0-7.17.18zm204.23 48.57c-5.25-2.8-10.85-4.72-16.8-5.95-6.47-1.4-12.95-2.28-19.6-2.28-3.5-.17-7.18.35-10.5 1.22-2.28.53-4.2 1.75-5.43 3.5-.88 1.4-1.4 3.15-1.4 4.72s.7 3.15 1.75 4.55c1.57 1.92 3.68 3.5 5.95 4.72 4.03 2.1 8.22 4.03 12.43 5.78 9.45 3.15 18.55 7.53 26.95 12.78 5.78 3.67 10.5 8.58 13.82 14.53 2.8 5.6 4.2 11.73 4.03 18.03.18 8.22-2.28 16.45-6.82 23.28-4.9 7-11.73 12.43-19.6 15.57-8.57 3.68-19.08 5.6-31.68 5.6-8.05 0-15.93-.7-23.8-2.28a70.328 70.328 0 01-17.85-5.6c-1.22-.7-2.1-1.93-1.93-3.32v-30.45c0-.53.18-1.22.7-1.57.53-.35 1.05-.18 1.57.18 6.82 4.03 14 6.82 21.7 8.57 6.65 1.75 13.65 2.63 20.65 2.63s11.38-.88 14.53-2.45c2.8-1.22 4.72-4.2 4.72-7.35 0-2.45-1.4-4.72-4.2-7-2.8-2.28-8.57-4.9-17.15-8.22-8.93-3.15-17.15-7.35-24.85-12.6-5.43-3.85-9.98-8.93-13.3-14.88-2.8-5.6-4.2-11.73-4.03-17.85 0-7.53 2.1-14.7 5.95-21.18 4.38-7 10.85-12.6 18.38-16.1 8.22-4.2 18.55-6.13 30.98-6.13 7.18 0 14.53.53 21.7 1.58 5.25.7 10.32 2.1 15.05 4.03.7.17 1.4.88 1.75 1.58.18.7.35 1.4.35 2.1v28.53c0 .7-.35 1.4-.88 1.75-1.57.35-2.45.35-3.15 0z" />
</svg>