<svg xmlns="http://www.w3.org/2000/svg" viewBox="0 0 410 410">
    <defs>
        <linearGradient id="prefix__a" x1="-272.24" y1="1463.92" x2="10.94" y2="1190.69"
            gradientTransform="matrix(1 0 0 -1 339.04 1517.34)" gradientUnits="userSpaceOnUse">
            <stop offset="0" stop-color="#62a0ea" />
            <stop offset="1" stop-color="#1a5fb4" />
        </linearGradient>
    </defs>
    <rect width="410" height="410" rx="40.04" ry="40.04" fill="#fff" />
    <path
        d="M199.91 64.85c-8.36 5.36-10.77 16.47-5.38 24.81 29.61 45.86 36.6 80.45 33.57 110.76-12.26 58.05-38.9 69.82-62.18 69.82s-16.64-37.41.44-48.36c10.2-6.37 23.27-10.51 33.29-10.51s17.99-8.03 17.99-17.94-8.06-17.94-17.99-17.94c-11.71 0-23.2 2.46-33.93 6.65 2.19-10.34 3-21.51.17-33.39-4.3-18.03-16.68-35.26-38.18-51.96-3.76-2.93-8.54-4.24-13.28-3.66s-9.05 3.02-11.98 6.78c-6.1 7.82-4.69 19.09 3.16 25.18 17.51 13.6 23.29 23.67 25.27 31.96 1.98 8.29.39 17.18-3.59 29.39-5.08 16.46-10.97 31.16-13.55 45.25-1.27 6.94-1.38 14.49-1.71 20.52-12.61-12.29-17.55-28.52-17.55-52.23 0-9.91-8.06-17.94-17.99-17.94-9.93 0-17.97 8.04-17.97 17.94 0 32.39 9.47 63.2 34.85 83.76 22.98 21.89 81.41 13.8 81.41 48.94 0 9.92 14.52 14.75 24.45 14.75s23.01-6.81 23.01-14.75c0-39.87 42.02-64.11 111.2-64 9.94.01 18-8.01 18.01-17.92.02-9.91-8.02-17.96-17.96-17.97-4.73 0-9.34.16-13.89.42 7.73-18.19 11.16-38.21 10.45-59.84-.33-9.9-8.64-17.67-18.57-17.34-9.94.32-17.73 8.62-17.4 18.53.94 28.32-.12 53.61-21.22 66.94-6 3.79-12.97 7.07-19.59 7.07 5.14-13.97 9.01-28.71 10.6-44.6 1.01-10.14 1.12-22.19-.04-31.55-1.8-14.5-3.96-30.95 1.54-43.33 4.94-10.67 16.02-15.14 32.29-15.14 9.93 0 17.97-8.04 17.97-17.94 0-9.91-8.04-17.95-17.97-17.96-24.17 0-42.5 12.72-52.88 28.09-5.43-11.6-12.05-23.56-20.04-35.93-2.58-4-6.65-6.81-11.31-7.82-2.31-.5-4.69-.54-7.02-.13-2.33.42-4.55 1.29-6.54 2.56z"
        fill="url(#prefix__a)" />
</svg>